<?xml version="1.0" encoding="utf-8"?>
<!-- Generator: Adobe Illustrator 17.1.0, SVG Export Plug-In . SVG Version: 6.00 Build 0)  -->
<!DOCTYPE svg PUBLIC "-//W3C//DTD SVG 1.1//EN" "http://www.w3.org/Graphics/SVG/1.1/DTD/svg11.dtd">
<svg version="1.1" id="Layer_1" xmlns="http://www.w3.org/2000/svg" xmlns:xlink="http://www.w3.org/1999/xlink" x="0px" y="0px"
	 viewBox="0 0 500 500" enable-background="new 0 0 500 500" xml:space="preserve">
<g>
	<g>
		<polygon fill="#262262" points="25.725,323.966 21.742,323.966 21.742,354.473 36.406,354.473 36.406,351.234 25.725,351.234 		
			"/>
		<path fill="#262262" d="M77.554,330.092c-6.784,0-12.124,4.771-12.124,12.344c0,7.616,5.165,12.43,11.949,12.43
			c6.827,0,12.299-4.814,12.299-12.43C89.678,334.864,84.382,330.092,77.554,330.092z M77.379,351.365
			c-4.159,0-7.88-2.845-7.88-8.928c0-6.041,3.808-8.885,8.01-8.885c4.114,0,8.097,2.844,8.097,8.885
			C85.607,348.52,81.537,351.365,77.379,351.365z"/>
		<path fill="#262262" d="M140.018,334.864c-1.401-2.582-4.551-4.771-8.929-4.771c-6.434,0-11.38,4.815-11.38,12.3
			c0,7.441,4.946,12.474,11.38,12.474c4.378,0,7.485-2.32,8.929-4.902v5.034c0,5.121-3.195,7.834-7.441,7.834
			c-3.939,0-6.784-1.969-7.66-4.858h-3.939c0.787,5.121,5.296,8.316,11.599,8.316c7.047,0,11.468-4.683,11.468-11.292v-24.511
			h-4.027V334.864z M131.877,351.365c-4.377,0-8.097-3.326-8.097-8.972c0-5.647,3.72-8.841,8.097-8.841
			c4.377,0,8.141,3.326,8.141,8.885C140.018,348.082,136.253,351.365,131.877,351.365z"/>
		<rect x="177.053" y="330.487" fill="#262262" width="3.983" height="23.986"/>
		<path fill="#262262" d="M179.11,321.164c-1.531,0-2.713,1.182-2.713,2.713c0,1.533,1.182,2.713,2.713,2.713
			c1.445,0,2.627-1.181,2.627-2.713C181.736,322.346,180.555,321.164,179.11,321.164z"/>
		<path fill="#262262" d="M217.236,336.79c0-1.926,1.751-3.327,4.683-3.327c3.196,0,5.034,1.751,5.209,4.158h3.983
			c-0.263-4.683-3.764-7.529-9.06-7.529c-5.34,0-8.799,3.02-8.799,6.698c0,8.928,14.182,5.821,14.182,11.161
			c0,1.969-1.751,3.546-4.902,3.546c-3.371,0-5.428-1.751-5.647-4.071h-4.115c0.263,4.377,4.202,7.441,9.805,7.441
			c5.297,0,8.755-2.976,8.755-6.915C231.156,339.373,217.236,342.479,217.236,336.79z"/>
		<path fill="#262262" d="M268.059,324.447h-3.983v6.04h-3.108v3.283h3.108v14.137c0,4.814,2.408,6.566,6.652,6.566h3.59v-3.371
			h-2.933c-2.45,0-3.326-0.831-3.326-3.195V333.77h6.259v-3.283h-6.259V324.447z"/>
		<path fill="#262262" d="M307.456,321.164c-1.533,0-2.715,1.182-2.715,2.713c0,1.533,1.182,2.713,2.715,2.713
			c1.445,0,2.626-1.181,2.626-2.713C310.082,322.346,308.9,321.164,307.456,321.164z"/>
		<rect x="305.399" y="330.487" fill="#262262" width="3.982" height="23.986"/>
		<path fill="#262262" d="M352.629,333.463c3.546,0,5.952,1.838,6.784,4.727h4.289c-1.225-5.034-5.121-8.098-11.073-8.098
			c-6.828,0-11.687,4.815-11.687,12.344c0,7.616,4.858,12.43,11.687,12.43c5.952,0,9.848-3.326,11.073-8.097h-4.289
			c-0.875,3.02-3.239,4.727-6.784,4.727c-4.377,0-7.617-3.108-7.617-9.06C345.013,336.571,348.253,333.463,352.629,333.463z"/>
		<path fill="#262262" d="M398.418,336.79c0-1.926,1.751-3.327,4.683-3.327c3.195,0,5.033,1.751,5.209,4.158h3.983
			c-0.263-4.683-3.764-7.529-9.061-7.529c-5.34,0-8.797,3.02-8.797,6.698c0,8.928,14.181,5.821,14.181,11.161
			c0,1.969-1.75,3.546-4.902,3.546c-3.37,0-5.427-1.751-5.645-4.071h-4.115c0.263,4.377,4.202,7.441,9.805,7.441
			c5.297,0,8.755-2.976,8.755-6.915C412.336,339.373,398.418,342.479,398.418,336.79z"/>
	</g>
	<g>
		<path fill="#262262" d="M212.745,133.939h54.652l38.312,74.768l38.032-74.768h54.088l-68.456,119.527v59h-48.172v-59
			L212.745,133.939z"/>
		<polygon fill="#262262" points="478.258,133.71 428.501,133.71 360.935,255.226 361.136,255.338 360.844,255.338 360.844,312.174 
			404.778,312.174 404.778,265.862 		"/>
		<path fill="#262262" d="M168.356,220.915c23.459-5.087,41.052-19.074,41.052-40.691c0-28.228-29.324-46.285-78.655-46.285H21.742
			v35.042h58.99v-0.201h38.638c19.319,0,30.013,6.612,30.013,18.819c0,12.206-10.694,18.564-30.013,18.564H80.732v-19.309h-58.99
			v125.612h112.807c51.056,0,80.379-19.074,80.379-48.574C214.928,243.549,196.645,225.238,168.356,220.915z M124.199,277.372
			H80.732v-39.418h42.778c19.664,0,31.737,7.375,31.737,20.09S143.863,277.372,124.199,277.372z"/>
	</g>
</g>
</svg>
