<?xml version="1.0" standalone="no"?>
<!DOCTYPE svg PUBLIC "-//W3C//DTD SVG 20010904//EN"
 "http://www.w3.org/TR/2001/REC-SVG-20010904/DTD/svg10.dtd">
<svg version="1.0" xmlns="http://www.w3.org/2000/svg"
 width="1902.000000pt" height="969.000000pt" viewBox="0 0 1902.000000 969.000000"
 preserveAspectRatio="xMidYMid meet">

<g transform="translate(0.000000,969.000000) scale(0.100000,-0.100000)"
fill="#000000" stroke="none">
<path d="M15538 7156 l-1408 -2533 0 -1186 0 -1187 915 0 915 0 0 966 0 966
1519 2731 c835 1503 1523 2742 1530 2755 l12 22 -1038 0 -1038 -1 -1407 -2533z"/>
<path d="M0 8949 l0 -732 2158 4 c2035 4 2164 3 2277 -14 338 -50 556 -145
709 -307 120 -128 170 -260 170 -455 0 -203 -51 -333 -184 -466 -147 -148
-347 -232 -680 -286 -92 -14 -226 -17 -1047 -20 l-943 -4 0 405 0 406 -1230 0
-1230 0 0 -2620 0 -2620 2428 0 c1445 0 2510 4 2632 10 924 45 1646 237 2165
578 161 105 253 181 374 308 253 265 400 580 441 949 104 931 -655 1737 -1845
1958 l-70 14 45 12 c318 85 430 125 645 231 252 124 421 245 591 423 202 211
333 464 390 752 25 124 25 423 1 552 -80 432 -330 790 -747 1068 -204 136
-509 276 -785 360 -329 100 -632 155 -1140 207 -77 8 -862 12 -2617 15 l-2508
4 0 -732z m4590 -3623 c518 -76 828 -271 935 -587 36 -108 45 -274 21 -389
-62 -296 -329 -512 -731 -594 -240 -49 -241 -49 -1327 -53 l-1028 -4 0 826 0
826 1008 -4 c880 -3 1022 -6 1122 -21z"/>
<path d="M7971 9658 c6 -12 648 -1132 1425 -2490 l1414 -2468 0 -1230 0 -1230
1005 0 1005 0 0 1231 0 1231 1407 2456 c774 1352 1415 2472 1426 2490 l19 32
-1129 0 -1128 0 -790 -1554 c-434 -855 -793 -1551 -796 -1548 -4 4 -363 703
-799 1555 l-793 1547 -1139 0 -1139 0 12 -22z"/>
<path d="M6502 1867 c-36 -20 -55 -57 -55 -104 0 -134 193 -149 217 -18 18 92
-81 166 -162 122z"/>
<path d="M11848 1864 c-78 -42 -74 -160 7 -198 98 -47 191 54 144 157 -23 51
-97 71 -151 41z"/>
<path d="M0 1125 l0 -635 305 0 305 0 0 70 0 70 -220 0 -220 0 0 565 0 565
-85 0 -85 0 0 -635z"/>
<path d="M10098 1618 l-3 -123 -62 -3 -63 -3 0 -69 0 -70 65 0 65 0 0 -328 c0
-368 5 -404 62 -459 54 -52 99 -66 236 -71 l122 -4 0 70 0 70 -94 4 c-110 5
-140 19 -155 75 -7 23 -11 161 -11 341 l0 302 130 0 130 0 0 70 0 69 -127 3
-128 3 -3 123 -3 122 -79 0 -79 0 -3 -122z"/>
<path d="M2220 1499 c-80 -13 -196 -73 -255 -133 -122 -123 -171 -316 -130
-509 49 -234 233 -377 484 -377 148 0 259 40 352 127 99 93 147 201 156 353
21 357 -249 597 -607 539z m227 -160 c124 -47 201 -162 210 -313 11 -178 -57
-308 -197 -374 -46 -22 -69 -27 -140 -26 -106 0 -170 26 -233 93 -68 72 -91
142 -91 276 -1 101 2 115 28 173 36 78 113 151 182 175 71 23 171 22 241 -4z"/>
<path d="M4450 1496 c-168 -38 -290 -152 -342 -320 -31 -100 -31 -262 -1 -361
51 -163 163 -276 317 -320 43 -13 85 -16 160 -13 88 3 109 8 166 36 66 32 116
72 158 127 l23 30 -4 -150 c-3 -126 -7 -158 -25 -197 -46 -103 -116 -158 -228
-179 -146 -27 -314 51 -363 169 l-13 32 -80 0 -81 0 7 -42 c21 -130 146 -246
311 -288 136 -35 290 -23 403 31 117 57 212 194 232 334 5 39 10 303 10 588
l0 517 -85 0 -85 0 0 -86 0 -86 -49 54 c-103 113 -268 161 -431 124z m285
-168 c69 -35 137 -111 165 -184 19 -47 24 -77 24 -154 -1 -128 -26 -194 -104
-272 -48 -48 -68 -60 -130 -79 -216 -65 -412 74 -436 313 -17 170 70 333 207
387 77 30 203 25 274 -11z"/>
<path d="M8232 1495 c-100 -22 -174 -72 -222 -150 -21 -34 -25 -52 -25 -120 0
-69 4 -86 28 -127 47 -80 113 -117 315 -174 200 -56 248 -91 239 -172 -9 -81
-85 -131 -197 -132 -36 0 -82 5 -103 11 -52 14 -114 72 -129 120 l-11 39 -85
0 -85 0 7 -42 c9 -56 52 -132 95 -170 19 -17 64 -45 100 -61 58 -27 78 -31
176 -35 177 -7 284 35 355 139 27 40 33 60 38 119 6 88 -14 145 -68 194 -55
50 -97 69 -255 116 -158 47 -204 68 -234 106 -25 32 -28 92 -6 133 21 42 95
74 169 75 113 1 193 -48 216 -134 l11 -40 79 0 80 0 0 30 c0 16 -9 54 -20 84
-59 157 -255 237 -468 191z"/>
<path d="M13671 1494 c-228 -49 -371 -241 -371 -499 0 -247 123 -432 329 -495
80 -25 233 -27 312 -4 143 42 246 138 293 272 l15 42 -89 0 -90 0 -14 -33
c-19 -47 -72 -105 -120 -130 -35 -19 -57 -22 -146 -22 -89 0 -111 3 -145 22
-99 53 -162 165 -172 305 -18 246 111 413 317 412 123 -1 225 -61 265 -156
l15 -38 91 0 c103 0 100 -6 52 97 -86 184 -310 278 -542 227z"/>
<path d="M15781 1495 c-76 -17 -162 -66 -198 -114 -84 -110 -65 -276 41 -353
56 -42 107 -62 253 -103 188 -53 230 -80 240 -152 14 -110 -145 -185 -300
-142 -52 14 -114 72 -129 120 l-11 39 -85 0 -85 0 7 -42 c9 -56 52 -132 95
-170 19 -17 64 -45 100 -61 58 -27 78 -31 177 -35 95 -4 123 -1 185 18 61 18
81 30 128 78 61 61 81 107 81 183 0 65 -16 111 -54 155 -47 55 -109 86 -271
134 -203 60 -257 96 -257 172 0 89 72 141 192 142 110 0 187 -51 211 -139 l10
-35 81 0 81 0 -5 44 c-11 91 -76 184 -159 227 -50 25 -158 49 -219 48 -25 0
-74 -7 -109 -14z"/>
<path d="M6470 990 l0 -500 85 0 85 0 0 500 0 500 -85 0 -85 0 0 -500z"/>
<path d="M11820 990 l0 -500 80 0 80 0 0 500 0 500 -80 0 -80 0 0 -500z"/>
</g>
</svg>
